<?xml version="1.0" standalone="no"?>
<!DOCTYPE svg PUBLIC "-//W3C//DTD SVG 20010904//EN"
 "http://www.w3.org/TR/2001/REC-SVG-20010904/DTD/svg10.dtd">
<svg version="1.0" xmlns="http://www.w3.org/2000/svg"
 width="1280.000000pt" height="1280.000000pt" viewBox="0 0 1280.000000 1280.000000"
 preserveAspectRatio="xMidYMid meet">
<metadata>
Created by potrace 1.15, written by Peter Selinger 2001-2017
</metadata>
<g transform="translate(0.000000,1280.000000) scale(0.100000,-0.100000)"
fill="#000000" stroke="none">
<path d="M1540 12210 c0 -380 3 -580 10 -580 7 0 10 200 10 580 0 380 -3 580
-10 580 -7 0 -10 -200 -10 -580z"/>
<path d="M11240 12210 c0 -380 3 -580 10 -580 7 0 10 200 10 580 0 380 -3 580
-10 580 -7 0 -10 -200 -10 -580z"/>
<path d="M10 11250 c0 -7 200 -10 580 -10 380 0 580 3 580 10 0 7 -200 10
-580 10 -380 0 -580 -3 -580 -10z"/>
<path d="M11630 11250 c0 -7 200 -10 580 -10 380 0 580 3 580 10 0 7 -200 10
-580 10 -380 0 -580 -3 -580 -10z"/>
<path d="M5678 9998 c-160 -733 -484 -2222 -784 -3603 -91 -418 -183 -838
-203 -933 -21 -95 -35 -171 -31 -170 3 2 269 159 591 350 1341 795 1534 908
1537 899 4 -11 -219 -2675 -224 -2680 -2 -2 -142 88 -311 201 -170 112 -320
212 -335 222 l-28 18 10 -28 c5 -16 46 -155 90 -309 45 -154 117 -401 160
-550 43 -148 147 -504 230 -790 83 -286 153 -526 156 -534 3 -11 9 -8 21 10
10 13 316 431 681 928 365 497 661 905 659 907 -4 4 -71 -11 -526 -122 -123
-30 -229 -54 -236 -54 -12 0 13 115 595 2715 398 1777 417 1865 413 1865 -2 0
-14 -6 -26 -14 -63 -41 -2181 -1225 -2185 -1221 -2 2 50 147 116 322 67 175
207 545 312 823 105 278 318 838 472 1245 154 407 320 845 369 974 49 128 89
237 89 242 0 5 -304 9 -728 9 l-727 0 -157 -722z"/>
<path d="M10 1550 c0 -7 200 -10 580 -10 380 0 580 3 580 10 0 7 -200 10 -580
10 -380 0 -580 -3 -580 -10z"/>
<path d="M11630 1550 c0 -7 200 -10 580 -10 380 0 580 3 580 10 0 7 -200 10
-580 10 -380 0 -580 -3 -580 -10z"/>
<path d="M1540 590 c0 -380 3 -580 10 -580 7 0 10 200 10 580 0 380 -3 580
-10 580 -7 0 -10 -200 -10 -580z"/>
<path d="M11240 590 c0 -380 3 -580 10 -580 7 0 10 200 10 580 0 380 -3 580
-10 580 -7 0 -10 -200 -10 -580z"/>
</g>
</svg>
